<svg width="412" height="344" viewBox="0 0 412 344" fill="none" xmlns="http://www.w3.org/2000/svg">
<path d="M408.075 243.206L351.109 236.274L366.585 285.621L296.921 268.745L289.376 311.816L241.945 275.239L233.011 315.281L183.991 279.361L177.047 313.549L138.149 279.361L10.5449 339.728L61.5551 255.538L4.00217 241.473L33.3799 198.621L3 151.023L40.71 127.216L14.1097 78.5258L72.6648 95.1827L53.0224 32.6452L130.819 49.9577L161.185 4.73282L187.184 46.4921L234.028 7.54279L266.97 40.6536L329.878 3L332.054 70.9545L397.939 66.1931L353.285 130.042L408.061 161.42L379.284 195.186L408.061 243.221L408.075 243.206Z" fill="#EFA32E" stroke="black" stroke-width="3" stroke-miterlimit="10"/>
</svg>
